<svg xmlns="http://www.w3.org/2000/svg" viewBox="0 0 73.6 73.6"><defs><style>.cls-1{fill:#f9b500;}.cls-2{fill:#ffde56;}.cls-3{fill:#fff1bb;}.cls-4{fill:#df9800;}.cls-5{opacity:0.79;}.cls-6{fill:#00ffed;}</style></defs><g id="Layer_2" data-name="Layer 2"><g id="Layer_1-2" data-name="Layer 1"><circle class="cls-1" cx="36.8" cy="36.8" r="30.8" transform="translate(-1 72.5) rotate(-88.4)"/><path class="cls-2" d="M36.8,73.6A36.8,36.8,0,1,1,73.6,36.8,36.8,36.8,0,0,1,36.8,73.6ZM36.8,6A30.8,30.8,0,1,0,67.5,36.8,30.8,30.8,0,0,0,36.8,6Z"/><path class="cls-3" d="M2.2,36.8A36.9,36.9,0,0,1,37.9,0H36.8a36.8,36.8,0,0,0,0,73.6h1.1A36.8,36.8,0,0,1,2.2,36.8Z"/><path class="cls-4" d="M36.8,6h-1a30.8,30.8,0,0,1,0,61.5h1A30.8,30.8,0,0,0,36.8,6Z"/><g class="cls-5"><path class="cls-4" d="M23.3,21.6a7.5,7.5,0,0,1,.8-2.4,3.3,3.3,0,0,1,2.3-1.7,7.5,7.5,0,0,1,1.5,0,11.4,11.4,0,0,1,2.6.9c.1.1.2.1.1.3l-.5.9h-.3l-.6-.2a3.9,3.9,0,0,0-2.1-.4,3.5,3.5,0,0,0-1.4.6,3.3,3.3,0,0,0-.9,2.1,8.7,8.7,0,0,0-.1,2.8,31.4,31.4,0,0,0,1.2,5.1c.1.3.1.3.4.2l1.9-.3,3.4-.5a.5.5,0,0,0,.5-.3,6.1,6.1,0,0,1,.7-1l1.5-2.1,2-2.4,1.5-1.6a20.8,20.8,0,0,1,4-3.2,8.7,8.7,0,0,1,3.5-1.3,3.2,3.2,0,0,1,3.6,2.1,7.3,7.3,0,0,1,.7,2.9,18.8,18.8,0,0,1-.2,4.1c-.2,1.1-.5,2.2-.7,3.2s-.1.3.2.4A33.1,33.1,0,0,1,53.1,31a18.3,18.3,0,0,1,3.4,1.8,6.7,6.7,0,0,1,2,2.1,3.1,3.1,0,0,1,.2,2.8,6.9,6.9,0,0,1-2,2.5c-.2.1-.2.1-.3-.1l-.6-.8c-.1-.2-.1-.2.1-.4l.8-.9a2.6,2.6,0,0,0,.1-2.8,5.7,5.7,0,0,0-1.1-1.1,10.2,10.2,0,0,0-2.9-1.6,22.3,22.3,0,0,0-4.4-1.3c-.2-.1-.2-.1-.3.2l-.4,1c-.4,1.3-1,2.6-1.5,3.9s-.1.5,0,.8,1,2,1.4,3l1,2.5c.4,1.3.8,2.6,1.1,4a17.3,17.3,0,0,1,.5,4.5,8.1,8.1,0,0,1-.5,3.1,3.6,3.6,0,0,1-3.2,2.2,7.3,7.3,0,0,1-2.9-.7,16.2,16.2,0,0,1-3.9-2.5A31.5,31.5,0,0,1,36,49.6a47,47,0,0,1-3.5-4.3.7.7,0,0,0-.6-.3L30,44.8l-3.3-.4c-.4-.1-.4-.1-.5.3s-.6,2.3-.8,3.4a11.5,11.5,0,0,0-.1,3.7,5.4,5.4,0,0,0,.5,2.1,2.6,2.6,0,0,0,2.6,1.3l1.4-.4c.3-.1.3-.1.4.1l.6.7c.1.2.1.2-.1.3a6.9,6.9,0,0,1-2.8.8,3.4,3.4,0,0,1-3.4-2,6.7,6.7,0,0,1-.6-2.8,18.2,18.2,0,0,1,.3-5.2l.6-2.4c.1-.3.1-.3-.2-.3l-3.5-1a24.8,24.8,0,0,1-3.7-1.7,7.7,7.7,0,0,1-2.3-2.1,3.4,3.4,0,0,1-.2-3.5A11.5,11.5,0,0,1,16.3,34a16.5,16.5,0,0,1,3.6-2.2,32.6,32.6,0,0,1,4.4-1.5c.3-.1.3-.1.2-.4a24.6,24.6,0,0,1-.7-2.9,16.5,16.5,0,0,1-.5-3.8Zm10.3,8.7H33a.3.3,0,0,0-.3.3,8.6,8.6,0,0,0-1,1.6c-.7,1-1.2,2.1-1.8,3.1l-.7,1.6a.3.3,0,0,0,0,.4L31,40.5l1.9,2.9c.1.2.2.2.4.2a36.9,36.9,0,0,0,4.7,0h2.4a.5.5,0,0,0,.5-.3c.9-1.4,1.7-2.9,2.5-4.4l.9-1.8a.3.3,0,0,0,0-.4l-1-1.8-1.9-3.2-.9-1.2c0-.2-.1-.2-.3-.2H33.6ZM17,39.1a6.2,6.2,0,0,0,2,1.5,19.7,19.7,0,0,0,4,1.6l2,.5c.3,0,.3,0,.4-.2s.8-2.5,1.3-3.7l.7-1.5v-.5A41,41,0,0,1,25.3,32c-.2-.4-.2-.4-.6-.3a23,23,0,0,0-5,1.8,8.2,8.2,0,0,0-2.5,1.6,3.7,3.7,0,0,0-.9,1.6,1.3,1.3,0,0,0-.1.6A2.5,2.5,0,0,0,17,39.1Zm31.3,14a3.9,3.9,0,0,0,.4-1.8,12.9,12.9,0,0,0-.3-3.9c-.2-1-.5-2-.8-3v-.2c-.2-.3-.2-.3-.5-.2l-2.8.5-2.5.3a.5.5,0,0,0-.5.3,14.3,14.3,0,0,1-1.4,2,20.3,20.3,0,0,1-1.8,2.3h0c-.2.1-.1.2,0,.3L39.3,51a26.5,26.5,0,0,0,2.6,2.1,11.5,11.5,0,0,0,2.7,1.4l1.4.2A2.3,2.3,0,0,0,48.3,53.1Zm-.4-32.3a3.6,3.6,0,0,0-1.1-1.7,2.5,2.5,0,0,0-1.7-.3,6.4,6.4,0,0,0-3.2,1.3,17.4,17.4,0,0,0-3.6,3.1l-.7.7c-.1.2-.1.2,0,.4L39.1,26c.6.8,1.3,1.6,1.8,2.4a.8.8,0,0,0,.8.4l3.3.3,1.9.3c.2.1.3.1.4-.2l.3-1.5a19.1,19.1,0,0,0,.6-3.3V23.3A6.9,6.9,0,0,0,47.9,20.8ZM28.1,39.4c-.5,1.1-.9,2.2-1.3,3.3s-.1.3.2.3l3.1.4h1.1a46.2,46.2,0,0,1-2.8-4.8A1.3,1.3,0,0,0,28.1,39.4ZM39.2,45h-5c-.1.1,0,.2.1.2A18.4,18.4,0,0,0,36,47.5l.8.9c.2.2.2.2.4,0l2.2-3,.3-.4ZM45,38.8l-1.8,3.3-.6,1c-.1.1,0,.2.1.2l1.9-.3,2.1-.4h.1c.1,0,.2-.1.1-.2a8.7,8.7,0,0,0-.7-1.7,15.4,15.4,0,0,0-.8-1.9l-.2-.3C45.1,38.5,45,38.7,45,38.8ZM30,30.7l-2.2.3-1.1.2c-.2.1-.2.1-.1.3a20,20,0,0,0,1,2.6,5.4,5.4,0,0,1,.5,1.1h.2v-.2a5.9,5.9,0,0,0,.4-.8c.6-1.2,1.3-2.4,2-3.6s.1,0,0-.1A1.1,1.1,0,0,0,30,30.7Zm9.2-2c.1-.1.1-.1,0-.2l-2.4-3h-.1c-.2-.2-.2-.2-.4,0L35,27.2a14.7,14.7,0,0,0-1,1.3c0,.1-.1.1-.1.3ZM43,31.4l2,3.4h0c.1.1.1.2.2.2s0-.1.1-.2,1-2.4,1.4-3.7,0-.3-.2-.3l-3-.4H42.3A6.1,6.1,0,0,1,43,31.4Z"/><path class="cls-4" d="M32.9,18.9a2.1,2.1,0,0,0-2.1,2.2,2.2,2.2,0,0,0,2.2,2A2,2,0,0,0,35,21,2.1,2.1,0,0,0,32.9,18.9Z"/><path class="cls-4" d="M54.4,41.6a2,2,0,0,0-2.1-2.1,2.1,2.1,0,0,0-2.1,2.2,2.1,2.1,0,0,0,2.1,2.1A2.2,2.2,0,0,0,54.4,41.6Z"/><path class="cls-4" d="M35.4,53.5a2.2,2.2,0,0,0-2.2-2.1,2.1,2.1,0,0,0-2.1,2.1,2.2,2.2,0,0,0,2.2,2.1A2.1,2.1,0,0,0,35.4,53.5Z"/><path class="cls-4" d="M36.6,33.4H33.1c-.2.1-.3.1-.3.4.1,2.2.1,4.5.1,6.7,0,.3,0,.3.3.3h4.9a1,1,0,0,0,.7-.4c.1-.1,0-.2,0-.3l-.6-.6c-.9-.8-.5-.6-1.7-.6H35.1c-.3-.1-.3-.1-.3-.3v-3c0-.3,0-.3.2-.3h3.1c.2,0,.2,0,.2.2s.1.8.1,1.1-.1.3-.3.3H36.9a.1.1,0,0,0,0,.2H37l3.5,3.4.2.2c.2-.1.1-.3.1-.4V38.6a.8.8,0,0,0-.2-.5c-.3-.2-.3-.4-.3-.7V33.5H36.6Z"/><polygon class="cls-4" points="30.9 55.8 30.8 54.6 30.1 54.6 29.9 55.4 30.9 55.8"/><polygon class="cls-4" points="29.9 18.5 30 19.7 30.6 18.6 30.6 17.3 29.9 18.5"/><polygon class="cls-4" points="55.7 37.9 55.7 39.1 56.7 39.4 56.7 38.6 55.7 37.9"/><path class="cls-6" d="M23.3,20.5A7.2,7.2,0,0,1,24,18a3.3,3.3,0,0,1,2.3-1.7,7.5,7.5,0,0,1,1.5,0,10,10,0,0,1,2.6.9c.2.1.2.2.1.3l-.5.9h-.3l-.6-.3a5.2,5.2,0,0,0-2.1-.4,2.7,2.7,0,0,0-1.4.7,3.4,3.4,0,0,0-.9,2,8.8,8.8,0,0,0-.1,2.8,31.4,31.4,0,0,0,1.2,5.1c.1.3.1.3.4.2l1.9-.3,3.5-.5c.2,0,.3-.1.4-.3a8.6,8.6,0,0,0,.7-1l1.5-2.1,2-2.4,1.5-1.6a29.5,29.5,0,0,1,4-3.2,8.7,8.7,0,0,1,3.5-1.3,3.6,3.6,0,0,1,2.5.6A4.4,4.4,0,0,1,48.9,18a7.2,7.2,0,0,1,.6,2.9,18.8,18.8,0,0,1-.2,4.1c-.2,1.1-.5,2.2-.7,3.3s-.1.2.2.3A22.5,22.5,0,0,1,53,29.9a13.5,13.5,0,0,1,3.4,1.7,6.7,6.7,0,0,1,2,2.1,3.1,3.1,0,0,1,.2,2.8,6.2,6.2,0,0,1-2,2.5c-.1.1-.2.1-.3-.1l-.6-.8c-.1-.2-.1-.2.1-.4a2.4,2.4,0,0,0,.8-.9,2.3,2.3,0,0,0,.1-2.7,4.3,4.3,0,0,0-1.1-1.2,11.2,11.2,0,0,0-2.8-1.6A25.4,25.4,0,0,0,48.3,30c-.2,0-.2,0-.3.2a4.2,4.2,0,0,1-.4,1,31.2,31.2,0,0,1-1.5,3.9,1.1,1.1,0,0,0,0,.8c.5,1,1,2,1.4,3s.7,1.7,1,2.5.8,2.7,1.1,4a17.6,17.6,0,0,1,.6,4.6,10.7,10.7,0,0,1-.6,3,3.3,3.3,0,0,1-3.2,2.2,6.8,6.8,0,0,1-2.8-.7,15,15,0,0,1-4-2.5,31.5,31.5,0,0,1-3.7-3.6,47,47,0,0,1-3.5-4.3.6.6,0,0,0-.6-.3H29.9l-3.3-.5c-.4-.1-.4-.1-.5.4a19.4,19.4,0,0,0-.7,3.3,15.6,15.6,0,0,0-.2,3.7,3.7,3.7,0,0,0,.6,2.1A2.4,2.4,0,0,0,28.4,54l1.3-.4c.3-.1.3-.1.4.1l.6.7c.2.2.2.2,0,.3a5.7,5.7,0,0,1-2.8.8,3.2,3.2,0,0,1-3.4-2,5.5,5.5,0,0,1-.7-2.8,18.3,18.3,0,0,1,.4-5.2,15.5,15.5,0,0,1,.5-2.3c.1-.3.1-.3-.2-.4l-3.5-1a17.6,17.6,0,0,1-3.7-1.7A6.3,6.3,0,0,1,15.1,38a3.2,3.2,0,0,1-.2-3.4,4.9,4.9,0,0,1,1.4-1.8,13.8,13.8,0,0,1,3.5-2.2,32.6,32.6,0,0,1,4.4-1.5c.3-.1.3-.1.3-.4a24.5,24.5,0,0,1-.8-2.9,16.5,16.5,0,0,1-.5-3.8A7.6,7.6,0,0,1,23.3,20.5Zm10.2,8.6h-.6c-.2,0-.2.1-.3.2l-1,1.6-1.8,3.2-.7,1.5c-.1.2-.1.3,0,.4l1.8,3.2,1.9,2.9c.1.2.2.3.4.3h4.7l2.5-.2c.2,0,.3-.1.4-.3s1.7-2.9,2.5-4.4l.9-1.8a.3.3,0,0,0,0-.4,16.2,16.2,0,0,0-1-1.8,32.1,32.1,0,0,0-1.9-3.1l-.8-1.3-.3-.2H33.5ZM16.9,37.9a10,10,0,0,0,2,1.6,27.4,27.4,0,0,0,4,1.5l2.1.5c.2,0,.2,0,.3-.2s.9-2.5,1.3-3.7l.7-1.5c.1-.2.1-.3,0-.4a42.5,42.5,0,0,1-2.1-4.9c-.2-.4-.2-.4-.6-.3a23,23,0,0,0-5,1.8A10.1,10.1,0,0,0,17.1,34a3.8,3.8,0,0,0-.9,1.5,1.3,1.3,0,0,0-.1.6A2.5,2.5,0,0,0,16.9,37.9Zm31.4,14a11.6,11.6,0,0,0,.4-1.8,12.9,12.9,0,0,0-.4-3.9c-.2-1-.5-2-.8-3V43c-.1-.3-.1-.3-.5-.2l-2.8.5-2.5.3c-.2,0-.3.1-.5.3a14.3,14.3,0,0,1-1.4,2,19.5,19.5,0,0,1-1.7,2.3H38a.2.2,0,0,0,0,.3l1.2,1.2a23.9,23.9,0,0,0,2.6,2.1,8.7,8.7,0,0,0,2.7,1.4,2.3,2.3,0,0,0,1.4.2A2.4,2.4,0,0,0,48.3,51.9Zm-.5-32.2A2.8,2.8,0,0,0,46.7,18a2.1,2.1,0,0,0-1.7-.4,5.8,5.8,0,0,0-3.1,1.3A17.9,17.9,0,0,0,38.3,22l-.7.7c-.2.2-.2.2,0,.4A20.9,20.9,0,0,0,39,24.8l1.9,2.4a.7.7,0,0,0,.7.4l3.3.4a5.8,5.8,0,0,1,1.9.3c.3,0,.3,0,.4-.3a8.3,8.3,0,0,1,.4-1.5,28.8,28.8,0,0,0,.5-3.3V22.1A6.1,6.1,0,0,0,47.8,19.7ZM28,38.2c-.5,1.1-.9,2.2-1.3,3.3s-.1.3.2.4,2.1.3,3.2.3h.7c.1,0,.2.1.3,0s-1.9-3.1-2.8-4.8A3.6,3.6,0,0,0,28,38.2Zm11.1,5.6h-5a.3.3,0,0,0,.1.2,18.4,18.4,0,0,0,1.7,2.2l.8.9c.2.2.2.2.4,0a23.2,23.2,0,0,0,2.2-3l.3-.4Zm5.8-6.2c-.6,1.1-1.2,2.3-1.8,3.3l-.6,1c-.1.1,0,.2.1.2l1.9-.3,2.1-.4h.1c.2,0,.2-.1.1-.2l-.6-1.7-.9-1.8a.5.5,0,0,0-.2-.4C45,37.4,44.9,37.5,44.9,37.6Zm-15-8.1-2.1.3-1.2.2c-.2.1-.2.1-.1.3s.7,1.8,1.1,2.7a10.4,10.4,0,0,1,.4,1h.2a.1.1,0,0,0,.1-.1,3.6,3.6,0,0,0,.4-.9,39.7,39.7,0,0,1,2-3.5c.1-.1.1-.1.1-.2Zm9.3-2c0-.1,0-.1-.1-.2a31.5,31.5,0,0,0-2.4-3,.1.1,0,0,1-.1-.1c-.2-.2-.2-.2-.3,0L34.9,26a11.3,11.3,0,0,1-1,1.3c0,.1-.1.2-.1.3Zm3.7,2.7a37.9,37.9,0,0,1,2,3.4h.3c.5-1.3,1-2.5,1.4-3.8s0-.2-.2-.3-2-.3-3-.3H42.3Z"/><path class="cls-6" d="M32.8,17.7a2.1,2.1,0,0,0-2.1,2.2,2.2,2.2,0,0,0,4.3-.1A2.2,2.2,0,0,0,32.8,17.7Z"/><path class="cls-6" d="M54.3,40.4a2,2,0,0,0-2.1-2.1,2.2,2.2,0,1,0,.1,4.3A2,2,0,0,0,54.3,40.4Z"/><path class="cls-6" d="M35.3,52.3a2.2,2.2,0,0,0-2.2-2.1,2,2,0,0,0-2,2.2,2,2,0,0,0,2.1,2A2.1,2.1,0,0,0,35.3,52.3Z"/><path class="cls-6" d="M36.5,32.2H33.1c-.3,0-.3,0-.3.3v6.7c0,.3.1.3.3.3H38a1,1,0,0,0,.7-.4c.1-.1,0-.2,0-.3l-.6-.5c-.8-.8-.5-.7-1.7-.7H35c-.3,0-.3,0-.3-.3v-3c0-.3,0-.3.2-.3H38c.2,0,.3,0,.3.2v1.2c0,.2,0,.2-.3.2H36.8c-.1.1,0,.1.1.1s0,.1.1.1,2.2,2.3,3.4,3.4.1.2.3.2,0-.2,0-.4V37.4c0-.2,0-.4-.2-.5a.9.9,0,0,1-.3-.6V32.4c0-.2-.1-.2-.2-.2H36.5Z"/></g></g></g></svg>