<svg xmlns="http://www.w3.org/2000/svg" xmlns:xlink="http://www.w3.org/1999/xlink" viewBox="0 0 73.6 73.6"><defs><style>.cls-1{fill:#f9b500;}.cls-2{fill:#ffde56;}.cls-3{fill:#fff1bb;}.cls-4{fill:#df9800;}.cls-5{fill:url(#linear-gradient);}.cls-6{fill:url(#linear-gradient-2);}.cls-7{fill:url(#linear-gradient-3);}.cls-8{fill:url(#linear-gradient-4);}.cls-9{fill:url(#linear-gradient-5);}</style><linearGradient id="linear-gradient" x1="8.42" y1="36.39" x2="56.71" y2="36.39" gradientTransform="translate(26.3 -11.5) rotate(27.7)" gradientUnits="userSpaceOnUse"><stop offset="0" stop-color="#d60900"/><stop offset="1" stop-color="#fb7000"/></linearGradient><linearGradient id="linear-gradient-2" x1="143.71" y1="36.25" x2="149.57" y2="36.25" gradientTransform="matrix(-0.89, -0.46, -0.46, 0.89, 187.45, 73.08)" xlink:href="#linear-gradient"/><linearGradient id="linear-gradient-3" x1="147.17" y1="38.96" x2="155.68" y2="38.96" gradientTransform="matrix(-0.89, -0.46, -0.46, 0.89, 187.45, 73.08)" xlink:href="#linear-gradient"/><linearGradient id="linear-gradient-4" x1="146.94" y1="33.2" x2="155.94" y2="33.2" gradientTransform="matrix(-0.89, -0.46, -0.46, 0.89, 187.45, 73.08)" xlink:href="#linear-gradient"/><linearGradient id="linear-gradient-5" x1="149.32" y1="34.2" x2="152.42" y2="34.2" gradientTransform="matrix(-0.89, -0.46, -0.46, 0.89, 187.45, 73.08)" xlink:href="#linear-gradient"/></defs><g id="Layer_2" data-name="Layer 2"><g id="Layer_1-2" data-name="Layer 1"><circle class="cls-1" cx="36.8" cy="36.8" r="30.8" transform="translate(-1 72.5) rotate(-88.4)"/><path class="cls-2" d="M36.8,73.6A36.8,36.8,0,1,1,73.6,36.8,36.8,36.8,0,0,1,36.8,73.6ZM36.8,6A30.8,30.8,0,1,0,67.5,36.8,30.8,30.8,0,0,0,36.8,6Z"/><path class="cls-3" d="M2.2,36.8A36.9,36.9,0,0,1,37.9,0H36.8a36.8,36.8,0,0,0,0,73.6h1.1A36.8,36.8,0,0,1,2.2,36.8Z"/><path class="cls-4" d="M36.8,6h-1a30.8,30.8,0,0,1,0,61.5h1A30.8,30.8,0,0,0,36.8,6Z"/><path class="cls-4" d="M22.5,28.1l3.6,2a1.8,1.8,0,0,0,2.2,0L46.6,18.9a1.3,1.3,0,0,1,1.6-.1l7.3,4A4.4,4.4,0,0,1,58,27c0,1.6.1,3.2.1,4.8.1,5.3.2,10.5.4,15.8a1.7,1.7,0,0,1-1,1.8l-3.4,2-1,.6-.5-23.6-5,3.1c-.2.1-.3.4-.4.7v.9c.2,7.1.3,14.2.5,21.3a1.3,1.3,0,0,1-.8,1.4c-2.4,1.4-4.8,2.8-7.1,4.3a4.2,4.2,0,0,1-4.7.1l-3.9-2.1L16.8,50.2a1.5,1.5,0,0,1-.9-1.6c0-1.4-.1-2.8-.1-4.2s.1-.4.1-.7l.5.3,11.3,6.2,7.9,4.3c.8.4.9.4.9-.5s-.1-3.1-.1-4.7a1.2,1.2,0,0,0-.7-1.2L33,46.7,16.5,37.6a1.4,1.4,0,0,1-.9-1.4c0-2.8-.1-5.5-.2-8.3a4.3,4.3,0,0,1,1.3-3.4,5.1,5.1,0,0,1,1.3-.9l16.2-9.9,2.1-1.3,2.3,1.2,3.2,1.8L21.6,27.5Zm5.8,13.3a1.2,1.2,0,0,0,.7,1.2l7.5,4.1a.9.9,0,0,0,1.2,0l7.4-4.5a1.1,1.1,0,0,0,.6-1.1c-.1-2.9-.1-5.8-.2-8.7a1,1,0,0,0-.6-1l-7.6-4.2a1.3,1.3,0,0,0-1.2,0l-7.4,4.5a1.2,1.2,0,0,0-.6,1.2c.1,1.4.1,2.8.1,4.2h0C28.2,38.5,28.3,39.9,28.3,41.4Zm-7.4-4c0,.5.1.9.6,1.1l4.4,2.4c.6.3.7.3.7-.5,0-2.5-.1-5-.1-7.5-.1-.5-.2-.9-.7-1.1l-4.3-2.4c-.7-.3-.8-.3-.8.5s.1,2.5.1,3.8h0C20.8,34.9,20.9,36.2,20.9,37.4Zm18,17,6.3-3.8a1.2,1.2,0,0,0,.7-1.2c-.1-1.8-.1-3.6-.1-5.5l-.9.4L38.7,48a1.3,1.3,0,0,0-.7,1.4c0,1.5,0,3,.1,4.5a3.1,3.1,0,0,0,.1.9Zm8.7-29.8-3.2-1.7a.8.8,0,0,0-.9-.1l-4.8,2.9c0,.1-.1.1-.1.3l1.9,1,5.2,2.9a.9.9,0,0,0,1.1,0l4.6-2.8c.1,0,.1-.1.2-.2Z"/><path class="cls-4" d="M38.6,37.6a18.4,18.4,0,0,1,.6,4c1.1-.4,1.1-.4,1.1-1.5V37.4a1.2,1.2,0,0,1,.2-.8c.3,1.4.2,2.7.4,4.2l.9-.5a1.3,1.3,0,0,0,.4-.7c-.1-1.9-.1-3.8-.1-5.8l-.7.3-3.7,2.1c-.3.1-.6.2-.5.6,0,2,0,3.9.1,5.9,1.4-.5,1.4-.5,1.3-1.8V37.6Z"/><path class="cls-4" d="M36.6,42.8c0-2.1-.1-4-.1-5.8a1.2,1.2,0,0,0-.1-.5l-.3-.5a13.8,13.8,0,0,0-4.4-2c-.1.4,0,.6-.1.9a1.2,1.2,0,0,0,.7,1.2,10,10,0,0,1,2.1,1l.6.3a.6.6,0,0,1,.1.4.1.1,0,0,1-.2,0,.3.3,0,0,1-.1-.2c-.1-.2-.5-.3-.6-.3l-2.5-1v.9a.9.9,0,0,0,.7,1.1l2,1,.5.3c.2.1.2.3.3.5h-.4l-.9-.5-2.1-1a.3.3,0,0,1-.1.2c0,1.5,0,1.5,1.3,2.2A40.2,40.2,0,0,1,36.6,42.8Z"/><path class="cls-4" d="M42,33.2l-1.4-.7-3.3-1.7a.7.7,0,0,0-.9-.1l-4.7,2.7,1.7.8a.8.8,0,0,0,.8-.1L36.3,33a.9.9,0,0,1,1,0l2,1a1,1,0,0,0,1.3,0Z"/><path class="cls-4" d="M35.1,34.5c2,1.2,1.6,1.2,3.5-.1C36.6,33.2,37.1,33.1,35.1,34.5Z"/><polygon class="cls-4" points="15.9 43.7 17 42.5 18.4 44.7 16.7 45.1 15.9 43.7"/><polygon class="cls-4" points="58.1 49 59.3 47.7 58.9 47.5 57.4 49.2 58.1 49"/><polygon class="cls-4" points="42.9 14.2 41.8 15.4 40.8 14.8 42.4 14 42.9 14.2"/><polygon class="cls-4" points="36.6 42.8 37.8 41.6 36.6 41 36.6 42.8"/><polygon class="cls-4" points="42 40.1 43.1 38.9 42.3 38.6 42 40.1"/><polygon class="cls-4" points="40.2 41.1 41.3 39.9 40.8 39.6 40.1 40.2 40.2 41.1"/><polygon class="cls-4" points="38.5 42.1 39.6 40.8 39.3 40.6 38.5 41 38.5 42.1"/><polygon class="cls-4" points="31.7 34 32.8 32.8 33.2 34.5 32.4 34.9 31.7 34"/><polygon class="cls-4" points="31.7 36.3 32.9 35.1 33.3 36.8 32.8 37.2 31.7 36.3"/><polygon class="cls-4" points="33 37.4 31.8 38.6 33.8 39.9 34.2 39 33 37.4"/><polygon class="cls-4" points="31.7 33.4 32.8 32.2 33.7 32.4 32.3 33.5 31.7 33.4"/><polygon class="cls-4" points="38.6 34.4 39.8 33.2 38.5 33.1 37.6 34.3 38.6 34.4"/><polygon class="cls-4" points="36.2 33.3 35.4 34.4 36.6 34.2 36.9 33.5 36.2 33.3"/><polygon class="cls-4" points="43.1 32 41.7 33.5 39.9 33.4 40.7 32 43.1 32"/><path class="cls-5" d="M23.6,26.9l3.6,2a1.8,1.8,0,0,0,2.2,0L47.7,17.7a1.4,1.4,0,0,1,1.6-.1l7.3,4a4.4,4.4,0,0,1,2.5,4.2c.1,1.6.1,3.2.1,4.8.2,5.3.2,10.5.4,15.8a1.7,1.7,0,0,1-.9,1.8l-3.5,2-.9.6-.6-23.5-5,3c-.2.1-.3.4-.4.7v.9c.2,7.1.3,14.2.5,21.3a1.3,1.3,0,0,1-.8,1.4l-7.1,4.3a4.2,4.2,0,0,1-4.7.1l-3.9-2.1L18,49a1.6,1.6,0,0,1-1-1.6c0-1.4-.1-2.8-.1-4.2s.1-.4.1-.7l.6.3L28.9,49l7.8,4.3c.8.4.9.4.9-.5s-.1-3.1-.1-4.7a1.3,1.3,0,0,0-.7-1.2l-2.7-1.4L17.6,36.4a1.4,1.4,0,0,1-.9-1.4c0-2.8-.1-5.5-.2-8.3a4.3,4.3,0,0,1,1.3-3.4,5.1,5.1,0,0,1,1.3-.9l16.3-9.9,2-1.3,2.3,1.2,3.2,1.8L22.7,26.3Zm5.8,13.3a1.2,1.2,0,0,0,.7,1.2l7.5,4.1a.9.9,0,0,0,1.2,0L46.2,41a1.1,1.1,0,0,0,.6-1.1c-.1-2.9-.1-5.8-.2-8.7a1.1,1.1,0,0,0-.5-1L38.4,26a1.3,1.3,0,0,0-1.2,0l-7.4,4.5a1.2,1.2,0,0,0-.6,1.2c.1,1.4.1,2.8.1,4.2h0C29.3,37.3,29.4,38.8,29.4,40.2Zm-7.4-4c0,.5.1.9.6,1.1L27,39.7c.6.3.7.3.7-.5,0-2.5-.1-5-.1-7.5a1.2,1.2,0,0,0-.7-1.1l-4.3-2.4c-.7-.3-.8-.3-.8.5s.1,2.5.1,3.8h0C21.9,33.7,22,35,22,36.2ZM40,53.3l6.3-3.9a1.2,1.2,0,0,0,.7-1.2c-.1-1.8-.1-3.6-.1-5.5-.4.2-.6.2-.8.4l-6.3,3.7a1.5,1.5,0,0,0-.7,1.4c.1,1.5.1,3,.1,4.5s.1.5.1.9Zm8.7-29.9-3.2-1.7a.8.8,0,0,0-.9-.1l-4.8,2.9c0,.1,0,.1-.1.3l1.9,1,5.2,2.9a1.1,1.1,0,0,0,1.1.1l4.6-2.9.3-.2Z"/><path class="cls-6" d="M39.8,36.4a27.3,27.3,0,0,1,.5,4c1.2-.4,1.2-.4,1.1-1.5V36.2a1.2,1.2,0,0,1,.2-.8c.3,1.4.2,2.7.4,4.2l.9-.5a1.3,1.3,0,0,0,.4-.7c0-1.9-.1-3.8-.1-5.8l-.7.3L38.8,35c-.3.1-.5.2-.5.6,0,2,.1,3.9.1,5.9,1.4-.5,1.4-.5,1.3-1.7V37.1A2,2,0,0,1,39.8,36.4Z"/><path class="cls-7" d="M37.8,41.6c-.1-2.1-.1-3.9-.2-5.8a.8.8,0,0,0-.4-.8l-4.4-2.2a2.2,2.2,0,0,1-.1.9,1.2,1.2,0,0,0,.7,1.2l2.1,1,.6.3c.1.1.1.3.2.4s-.2.1-.3,0l-.7-.3-2.4-1.2a3.1,3.1,0,0,0-.1.9.9.9,0,0,0,.7,1.1l2,1,.5.3a1,1,0,0,1,.4.5h-.5l-.9-.5-2.1-1v.2c0,1.5,0,1.5,1.3,2.2Z"/><path class="cls-8" d="M43.1,32l-1.4-.7-3.3-1.7a.7.7,0,0,0-.9-.1l-4.7,2.7,1.7.8a1.1,1.1,0,0,0,.8,0l2.1-1.2a1.1,1.1,0,0,1,1.1,0l1.9,1a1,1,0,0,0,1.3,0Z"/><path class="cls-9" d="M36.2,33.3c2,1.2,1.6,1.2,3.6-.1C37.7,32,38.2,32,36.2,33.3Z"/></g></g></svg>